<?xml version="1.0" encoding="UTF-8" standalone="no"?>
<!-- Created with Inkscape (http://www.inkscape.org/) -->

<svg
   width="296.80197mm"
   height="297.13712mm"
   viewBox="0 0 296.80197 297.13712"
   version="1.1"
   id="svg1"
   xml:space="preserve"
   xmlns="http://www.w3.org/2000/svg"
   xmlns:svg="http://www.w3.org/2000/svg"><defs
     id="defs1" /><g
     id="layer1"
     transform="translate(-7.3567976,73.839078)"><path
       id="path3"
       style="fill:#ffffff;fill-opacity:1;stroke-width:0.535818"
       d="m 103.29784,-73.839078 c -3.530299,0 -6.371812,2.842991 -6.371812,6.375102 v 10.957624 a 85.892906,86.588146 0 0 0 -17.101543,4.746508 l -5.815019,-10.077061 c -1.765147,-3.058899 -5.64724,-4.099998 -8.704565,-2.333942 l -12.614544,7.287113 c -3.057325,1.766055 -4.097891,5.650144 -2.332744,8.709042 l 5.836347,10.113004 a 85.892906,86.588146 0 0 0 -12.507899,12.68955 l -10.678077,-6.168437 c -3.057325,-1.766055 -6.939418,-0.724956 -8.704565,2.333943 l -7.283365,12.62104 c -1.765147,3.058887 -0.724581,6.9429952 2.332742,8.7090421 l 10.883513,6.287501 A 85.892906,86.588146 0 0 0 25.701044,15.051806 H 13.728619 c -3.530295,0 -6.3718214,2.844106 -6.3718214,6.376221 v 14.573088 c 0,3.532116 2.8415264,6.376244 6.3718214,6.376244 h 11.879249 a 85.892906,86.588146 0 0 0 4.497097,16.718338 l -10.751046,6.209995 c -3.057325,1.766069 -4.097891,5.650155 -2.332742,8.709043 l 7.282242,12.621036 c 1.765149,3.058909 5.648363,4.099998 8.705686,2.333951 l 10.454684,-6.03927 a 85.892906,86.588146 0 0 0 12.789669,13.035472 l -5.895845,10.216336 c -1.765149,3.05891 -0.724585,6.94413 2.332744,8.71017 l 12.614544,7.28599 c 3.057329,1.76607 6.939416,0.72609 8.704565,-2.33282 l 5.886858,-10.2006 a 85.892906,86.588146 0 0 0 17.029704,4.71954 v 11.10701 c 0,3.53211 2.842643,6.37622 6.372942,6.37622 h 14.56561 c 3.53028,0 6.37295,-2.84411 6.37295,-6.37622 v -11.11037 a 85.892906,86.588146 0 0 0 17.05661,-4.67351 l 5.85995,10.1568 c 1.76514,3.05889 5.64722,4.1 8.70456,2.33395 l 12.61454,-7.28712 c 3.05734,-1.76604 4.09789,-5.65015 2.33275,-8.70904 l -5.94748,-10.308426 a 85.892906,86.588146 0 0 0 12.4338,-12.676068 l 9.99331,5.771956 c 3.05733,1.766047 6.93942,0.724958 8.70456,-2.333951 l 7.28337,-12.621036 c 1.76514,-3.058888 0.72459,-6.942974 -2.33275,-8.709043 l -10.19088,-5.886518 a 85.892906,86.588146 0 0 0 4.46903,-17.041818 h 11.34603 c 3.53029,0 6.37293,-2.844127 6.37293,-6.376243 V 21.428027 c 0,-3.532115 -2.84264,-6.376221 -6.37293,-6.376221 h -11.4987 a 85.892906,86.588146 0 0 0 -4.61834,-16.865504 l 10.49399,-6.0628519 c 3.05731,-1.7660469 4.09789,-5.6501331 2.33273,-8.7090421 l -7.28335,-12.62104 c -1.76516,-3.058903 -5.64725,-4.099998 -8.70456,-2.333943 l -10.34805,5.977498 a 85.892906,86.588146 0 0 0 -12.08919,-12.290824 l 5.95535,-10.320791 c 1.76517,-3.058898 0.72572,-6.942984 -2.33162,-8.709042 l -12.61454,-7.287113 c -3.05734,-1.766058 -6.93942,-0.724957 -8.70456,2.333942 l -5.88688,10.199488 a 85.892906,86.588146 0 0 0 -17.03081,-4.78245 v -11.044109 c 0,-3.532111 -2.84154,-6.375102 -6.37182,-6.375102 z m 7.0858,61.269936 a 41.165264,41.498467 0 0 1 41.16538,41.49768 41.165264,41.498467 0 0 1 -41.16538,41.49881 41.165264,41.498467 0 0 1 -41.165389,-41.49881 41.165264,41.498467 0 0 1 41.165389,-41.49768 z m 0,15.1627695 A 26.124111,26.335567 0 0 0 84.259847,28.928538 26.124111,26.335567 0 0 0 110.38364,55.264578 26.124111,26.335567 0 0 0 136.50856,28.928538 26.124111,26.335567 0 0 0 110.38364,2.5936275 Z M 219.51737,78.659033 c -0.29882,0.01739 -0.60054,0.0676 -0.90145,0.14823 l -9.93155,2.661905 c -2.40719,0.645344 -3.82645,3.10403 -3.18141,5.512509 l 2.13291,7.963263 a 60.636197,61.123042 14.078252 0 0 -10.84645,6.36611 l -6.15405,-6.158327 c -1.76221,-1.763113 -4.59951,-1.763091 -6.36172,0 l -7.27101,7.274757 c -1.7622,1.76311 -1.7622,4.60187 0,6.36498 l 6.27304,6.27626 a 60.636197,61.123042 14.078252 0 0 -6.13159,10.51848 l -8.16348,-2.18905 c -2.40722,-0.64534 -4.86466,0.77458 -5.50967,3.18306 l -2.66056,9.93779 c -0.64499,2.40845 0.77309,4.86716 3.18031,5.5125 l 8.0995,2.17108 a 60.636197,61.123042 14.078252 0 0 0.013,12.22231 l -8.46548,2.26881 c -2.40722,0.64535 -3.8253,3.10292 -3.18029,5.51138 l 2.66054,9.93779 c 0.64501,2.40848 3.10247,3.8284 5.50969,3.18306 l 8.23195,-2.20702 a 60.636197,61.123042 14.078252 0 0 6.34038,11.22606 l -5.88573,5.88876 c -1.76221,1.76311 -1.76221,4.60302 0,6.36611 l 7.27101,7.27365 c 1.76221,1.76311 4.59948,1.76424 6.36171,0.001 l 5.87678,-5.87979 a 60.636197,61.123042 14.078252 0 0 10.74991,6.3313 l -2.02851,7.57354 c -0.64502,2.40846 0.7742,4.86714 3.18141,5.51249 l 9.93155,2.66303 c 2.40722,0.64535 4.86579,-0.7746 5.5108,-3.18306 l 2.02851,-7.57575 a 60.636197,61.123042 14.078252 0 0 12.48434,-0.0685 l 2.14078,7.99697 c 0.64503,2.40843 3.1013,3.82727 5.50854,3.18193 l 9.93268,-2.66304 c 2.40722,-0.64532 3.82641,-3.10292 3.18142,-5.51138 l -2.17334,-8.11601 a 60.636197,61.123042 14.078252 0 0 10.7937,-6.37062 l 5.76002,5.76185 c 1.76222,1.76312 4.59952,1.76314 6.36171,0 l 7.27103,-7.27475 c 1.76218,-1.76309 1.76105,-4.60187 -0.001,-6.36498 l -5.87339,-5.87642 a 60.636197,61.123042 14.078252 0 0 6.15964,-10.80376 l 7.73578,2.07449 c 2.40722,0.64534 4.86577,-0.7746 5.51079,-3.18306 l 2.66053,-9.93666 c 0.64501,-2.40848 -0.77307,-4.86829 -3.18029,-5.51364 l -7.84129,-2.10143 a 60.636197,61.123042 14.078252 0 0 -0.0695,-12.34475 l 8.2634,-2.21489 c 2.4072,-0.64534 3.82531,-3.10403 3.1803,-5.51251 l -2.66054,-9.93778 c -0.64503,-2.40844 -3.10248,-3.82728 -5.50967,-3.18193 l -8.14777,2.18344 a 60.636197,61.123042 14.078252 0 0 -5.99913,-10.59035 l 5.94636,-5.94831 c 1.76223,-1.76314 1.76221,-4.60187 0,-6.36499 l -7.27101,-7.274749 c -1.76223,-1.763135 -4.59951,-1.763113 -6.36171,0 l -5.87676,5.878649 a 60.636197,61.123042 14.078252 0 0 -10.7387,-6.37396 l 2.01617,-7.530851 c 0.64502,-2.408458 -0.77307,-4.867165 -3.18029,-5.51251 l -9.93269,-2.663035 c -2.4072,-0.645344 -4.86354,0.7746 -5.50855,3.183058 l -2.00158,7.47132 a 60.636197,61.123042 14.078252 0 0 -12.52697,0.109978 l -2.12508,-7.934051 c -0.56437,-2.107411 -2.51646,-3.457892 -4.60821,-3.330201 z m 13.97737,42.608497 a 29.060666,29.293993 14.078256 0 1 6.43581,0.96593 29.060666,29.293993 14.078256 0 1 20.49175,35.8212 29.060666,29.293993 14.078256 0 1 -35.64785,20.77187 29.060666,29.293993 14.078256 0 1 -20.49063,-35.82234 29.060666,29.293993 14.078256 0 1 29.21092,-21.73666 z m -1.10688,10.68022 a 18.442347,18.59042 14.078252 0 0 -17.84807,13.80596 18.442347,18.59042 14.078252 0 0 13.00409,22.73292 18.442347,18.59042 14.078252 0 0 22.62356,-13.18149 18.442347,18.59042 14.078252 0 0 -13.0052,-22.73291 18.442347,18.59042 14.078252 0 0 -4.77438,-0.62448 z" /><rect
       style="fill:#ffffff;fill-opacity:0;stroke:none;stroke-width:0.0480859;stroke-dasharray:none;stroke-opacity:1"
       id="rect14"
       width="145.79378"
       height="145.79378"
       x="31.32642"
       y="74.327652"
       ry="1.8807368" /></g></svg>
